<svg width="48" height="48" viewBox="0 0 48 48" fill="none" xmlns="http://www.w3.org/2000/svg">
<path d="M8.24772 38.5374C5.69823 38.3596 3.70941 36.4556 3.48564 33.9098C3.24052 31.121 3 26.8851 3 21C3 15.1149 3.24052 10.879 3.48564 8.09024C3.70941 5.54438 5.69823 3.64036 8.24772 3.46263C11.4754 3.23761 16.6288 3 24 3C31.3712 3 36.5246 3.23761 39.7523 3.46263C42.3018 3.64037 44.2906 5.54438 44.5144 8.09024C44.7595 10.879 45 15.1149 45 21C45 26.8851 44.7595 31.121 44.5144 33.9098C44.2906 36.4556 42.3018 38.3596 39.7523 38.5374C36.7488 38.7468 32.0778 38.9671 25.5039 38.9967L18.3016 45.1701C17.0042 46.2821 15 45.3603 15 43.6516V38.8671C12.1856 38.7781 9.94911 38.656 8.24772 38.5374Z" stroke="#818FB4" stroke-width="3" stroke-linejoin="round"/>
<path d="M20.2046 12.2369C20.0699 10.7713 20.8101 9.36319 22.2636 9.13173C22.7606 9.05259 23.3393 9 23.9999 9C24.6604 9 25.2392 9.05259 25.7361 9.13173C27.1897 9.36319 27.9298 10.7713 27.7952 12.2369C27.6057 14.2988 27.3046 17.2426 26.977 19.1507C26.8179 20.0771 26.1985 20.8228 25.2649 20.9325C24.9203 20.973 24.5021 21 23.9999 21C23.4976 21 23.0795 20.973 22.7349 20.9325C21.8013 20.8228 21.1819 20.0771 21.0228 19.1507C20.6952 17.2426 20.394 14.2988 20.2046 12.2369Z" stroke="#818FB4" stroke-width="3" stroke-linejoin="round"/>
<path d="M27.5 28.5C27.5 30.433 25.933 32 24 32C22.067 32 20.5 30.433 20.5 28.5C20.5 26.567 22.067 25 24 25C25.933 25 27.5 26.567 27.5 28.5Z" stroke="#818FB4" stroke-width="3" stroke-linejoin="round"/>
</svg>
